<?xml version="1.0" standalone="no"?>
<!DOCTYPE svg PUBLIC "-//W3C//DTD SVG 20010904//EN"
 "http://www.w3.org/TR/2001/REC-SVG-20010904/DTD/svg10.dtd">
<svg version="1.0" xmlns="http://www.w3.org/2000/svg"
 width="1280.000000pt" height="960.000000pt" viewBox="0 0 1280.000000 960.000000"
 preserveAspectRatio="xMidYMid meet">
<metadata>
Created by potrace 1.15, written by Peter Selinger 2001-2017
</metadata>
<g transform="translate(0.000000,960.000000) scale(0.100000,-0.100000)"
fill="#000000" stroke="none">
<path d="M6425 9469 c-3 -8 -58 -174 -123 -369 l-119 -355 -44 -6 c-24 -4 -98
-12 -164 -19 -683 -68 -1327 -290 -1853 -637 -360 -237 -698 -563 -961 -927
-489 -677 -809 -1582 -896 -2535 -8 -96 -14 -176 -11 -178 2 -2 53 37 112 87
358 301 730 451 1015 411 156 -23 286 -75 417 -168 79 -56 221 -197 277 -276
22 -31 46 -57 52 -57 7 0 20 12 29 26 10 14 63 66 118 115 562 500 1123 485
1674 -45 l103 -99 -4 -1441 -3 -1441 -27 -122 c-134 -602 -442 -615 -922 -39
-35 42 -46 49 -87 53 -139 16 -245 -81 -295 -267 -25 -95 -23 -289 6 -395 27
-102 79 -209 131 -268 99 -112 363 -244 600 -298 111 -26 339 -36 450 -20 524
77 906 467 1011 1035 20 109 20 134 19 1654 l-1 1544 82 76 c628 586 1101 581
1785 -16 l65 -57 100 98 c154 149 285 244 439 316 411 192 847 92 1315 -302
156 -131 139 -133 131 18 -53 984 -381 1968 -890 2670 -224 310 -540 624 -848
842 -575 408 -1369 669 -2160 710 -70 3 -131 9 -135 12 -5 3 -85 146 -178 316
-206 379 -203 373 -210 354z"/>
</g>
</svg>
